<?xml version="1.0" standalone="no"?><!DOCTYPE svg PUBLIC "-//W3C//DTD SVG 1.1//EN" "http://www.w3.org/Graphics/SVG/1.1/DTD/svg11.dtd"><svg t="1701670960810" class="icon" viewBox="0 0 1024 1024" version="1.1" xmlns="http://www.w3.org/2000/svg" p-id="1528" width="128" height="128" xmlns:xlink="http://www.w3.org/1999/xlink"><path d="M511.5392 120.712533h-0.170667a125.559467 125.559467 0 0 0-92.091733 39.543467 127.965867 127.965867 0 0 0-34.218667 101.341867l0.682667 5.410133c2.082133 14.336 6.5024 28.0064 13.073067 40.618667l1.553066 2.8672-87.227733 105.864533-136.260267-60.091733a65.757867 65.757867 0 0 0-90.385066 75.912533l103.799466 421.085867a65.757867 65.757867 0 0 0 63.863467 50.005333h515.6864a65.757867 65.757867 0 0 0 63.863467-50.005333l103.867733-421.376a65.757867 65.757867 0 0 0-48.110933-79.581867l-4.232534-0.904533a65.774933 65.774933 0 0 0-37.853866 4.488533l-138.496 60.552533-87.278934-105.898666 1.365334-2.4576c7.338667-14.011733 12.049067-29.354667 13.841066-45.4656a128 128 0 0 0-33.2288-101.376 125.696 125.696 0 0 0-92.040533-40.533334z m-4.078933 65.877334l3.874133-0.119467a59.938133 59.938133 0 0 1 44.100267 19.575467 62.225067 62.225067 0 0 1 16.008533 49.339733 61.764267 61.764267 0 0 1-12.765867 31.522133l-2.798933 3.345067a32.887467 32.887467 0 0 0-0.904533 42.871467l118.954666 144.315733c9.335467 11.332267 25.070933 15.104 38.536534 9.216l161.262933-70.485333-103.8848 421.341866H254.1568L150.340267 416.426667l159.061333 70.161066c13.482667 5.956267 29.269333 2.218667 38.638933-9.1648l118.954667-144.3328c10.325333-12.526933 9.966933-30.72-0.853333-42.837333a62.173867 62.173867 0 0 1-15.6672-35.4304 62.173867 62.173867 0 0 1 16.503466-49.288533 59.562667 59.562667 0 0 1 40.482134-18.944z" fill="#444444" p-id="1529"></path><path d="M322.986667 589.056l42.837333 171.434667h-70.331733l-38.741334-154.862934a34.133333 34.133333 0 0 1 66.235734-16.554666z" fill="#00B386" p-id="1530"></path></svg>